<mxfile host="app.diagrams.net" modified="2024-05-07T19:13:16.039Z" agent="Mozilla/5.0 (Windows NT 10.0; Win64; x64) AppleWebKit/537.36 (KHTML, like Gecko) Chrome/124.0.0.0 Safari/537.36" etag="2z8QCn8gLz63n5R38lB6" version="24.3.1" type="onedrive">
  <diagram name="Página-1" id="jzJw0YjChJfA3GnfPmhr">
    <mxGraphModel grid="1" page="0" gridSize="10" guides="1" tooltips="1" connect="1" arrows="1" fold="1" pageScale="1" pageWidth="827" pageHeight="1169" math="0" shadow="0">
      <root>
        <mxCell id="0" />
        <mxCell id="1" parent="0" />
        <mxCell id="jl5R3bbfk-XUICAmzDHX-9" style="edgeStyle=none;rounded=0;orthogonalLoop=1;jettySize=auto;html=1;entryX=0.5;entryY=1;entryDx=0;entryDy=0;strokeColor=#000000;align=center;verticalAlign=middle;fontFamily=Helvetica;fontSize=11;fontColor=default;labelBackgroundColor=default;endArrow=none;endFill=0;fillColor=#e1d5e7;" edge="1" parent="1" source="iwGTZRKViXxZ3JSaXPzP-8" target="iwGTZRKViXxZ3JSaXPzP-11">
          <mxGeometry relative="1" as="geometry" />
        </mxCell>
        <mxCell id="jl5R3bbfk-XUICAmzDHX-26" style="edgeStyle=none;rounded=0;orthogonalLoop=1;jettySize=auto;html=1;entryX=0.5;entryY=0;entryDx=0;entryDy=0;strokeColor=#000000;align=center;verticalAlign=middle;fontFamily=Helvetica;fontSize=11;fontColor=default;labelBackgroundColor=default;endArrow=none;endFill=0;fillColor=#e1d5e7;shape=link;" edge="1" parent="1" source="jl5R3bbfk-XUICAmzDHX-13" target="jl5R3bbfk-XUICAmzDHX-21">
          <mxGeometry relative="1" as="geometry" />
        </mxCell>
        <mxCell id="jl5R3bbfk-XUICAmzDHX-12" style="edgeStyle=none;rounded=0;orthogonalLoop=1;jettySize=auto;html=1;strokeColor=#000000;align=center;verticalAlign=middle;fontFamily=Helvetica;fontSize=11;fontColor=default;labelBackgroundColor=default;endArrow=none;endFill=0;fillColor=#e1d5e7;entryX=0.5;entryY=1;entryDx=0;entryDy=0;" edge="1" parent="1" source="iwGTZRKViXxZ3JSaXPzP-8" target="iwGTZRKViXxZ3JSaXPzP-9">
          <mxGeometry relative="1" as="geometry" />
        </mxCell>
        <mxCell id="jl5R3bbfk-XUICAmzDHX-46" style="edgeStyle=none;rounded=0;orthogonalLoop=1;jettySize=auto;html=1;entryX=0.5;entryY=1;entryDx=0;entryDy=0;strokeColor=#000000;align=center;verticalAlign=middle;fontFamily=Helvetica;fontSize=11;fontColor=default;labelBackgroundColor=default;endArrow=none;endFill=0;fillColor=#e1d5e7;" edge="1" parent="1" source="iwGTZRKViXxZ3JSaXPzP-8" target="iwGTZRKViXxZ3JSaXPzP-12">
          <mxGeometry relative="1" as="geometry" />
        </mxCell>
        <mxCell id="iwGTZRKViXxZ3JSaXPzP-8" value="Clínica" style="whiteSpace=wrap;html=1;align=center;" vertex="1" parent="1">
          <mxGeometry x="647.5" y="200" width="100" height="40" as="geometry" />
        </mxCell>
        <mxCell id="iwGTZRKViXxZ3JSaXPzP-9" value="Morada" style="ellipse;whiteSpace=wrap;html=1;align=center;fontStyle=4;" vertex="1" parent="1">
          <mxGeometry x="790" y="320" width="100" height="40" as="geometry" />
        </mxCell>
        <mxCell id="iwGTZRKViXxZ3JSaXPzP-11" value="Telefone" style="ellipse;whiteSpace=wrap;html=1;align=center;fontStyle=4;" vertex="1" parent="1">
          <mxGeometry x="800" y="240" width="100" height="40" as="geometry" />
        </mxCell>
        <mxCell id="iwGTZRKViXxZ3JSaXPzP-12" value="Nome" style="ellipse;whiteSpace=wrap;html=1;align=center;" vertex="1" parent="1">
          <mxGeometry x="780" y="160" width="100" height="40" as="geometry" />
        </mxCell>
        <mxCell id="iwGTZRKViXxZ3JSaXPzP-24" style="edgeStyle=orthogonalEdgeStyle;rounded=0;orthogonalLoop=1;jettySize=auto;html=1;entryX=1;entryY=0.5;entryDx=0;entryDy=0;endArrow=none;endFill=0;fillColor=#e1d5e7;strokeColor=#000000;" edge="1" parent="1" source="iwGTZRKViXxZ3JSaXPzP-13" target="iwGTZRKViXxZ3JSaXPzP-21">
          <mxGeometry relative="1" as="geometry" />
        </mxCell>
        <mxCell id="jl5R3bbfk-XUICAmzDHX-1" style="rounded=0;orthogonalLoop=1;jettySize=auto;html=1;entryX=1;entryY=0.5;entryDx=0;entryDy=0;strokeColor=#000000;align=center;verticalAlign=middle;fontFamily=Helvetica;fontSize=11;fontColor=default;labelBackgroundColor=default;endArrow=none;endFill=0;fillColor=#e1d5e7;" edge="1" parent="1" source="iwGTZRKViXxZ3JSaXPzP-13" target="iwGTZRKViXxZ3JSaXPzP-16">
          <mxGeometry relative="1" as="geometry" />
        </mxCell>
        <mxCell id="jl5R3bbfk-XUICAmzDHX-2" style="rounded=0;orthogonalLoop=1;jettySize=auto;html=1;strokeColor=#000000;align=center;verticalAlign=middle;fontFamily=Helvetica;fontSize=11;fontColor=default;labelBackgroundColor=default;endArrow=none;endFill=0;fillColor=#e1d5e7;" edge="1" parent="1" source="iwGTZRKViXxZ3JSaXPzP-13" target="iwGTZRKViXxZ3JSaXPzP-17">
          <mxGeometry relative="1" as="geometry" />
        </mxCell>
        <mxCell id="jl5R3bbfk-XUICAmzDHX-6" style="edgeStyle=none;rounded=0;orthogonalLoop=1;jettySize=auto;html=1;entryX=0.5;entryY=1;entryDx=0;entryDy=0;strokeColor=#000000;align=center;verticalAlign=middle;fontFamily=Helvetica;fontSize=11;fontColor=default;labelBackgroundColor=default;endArrow=none;endFill=0;fillColor=#e1d5e7;" edge="1" parent="1" source="iwGTZRKViXxZ3JSaXPzP-13" target="iwGTZRKViXxZ3JSaXPzP-15">
          <mxGeometry relative="1" as="geometry" />
        </mxCell>
        <mxCell id="jl5R3bbfk-XUICAmzDHX-7" style="edgeStyle=none;rounded=0;orthogonalLoop=1;jettySize=auto;html=1;entryX=0.5;entryY=1;entryDx=0;entryDy=0;strokeColor=#000000;align=center;verticalAlign=middle;fontFamily=Helvetica;fontSize=11;fontColor=default;labelBackgroundColor=default;endArrow=none;endFill=0;fillColor=#e1d5e7;" edge="1" parent="1" source="iwGTZRKViXxZ3JSaXPzP-13" target="iwGTZRKViXxZ3JSaXPzP-14">
          <mxGeometry relative="1" as="geometry" />
        </mxCell>
        <mxCell id="jl5R3bbfk-XUICAmzDHX-8" style="edgeStyle=none;rounded=0;orthogonalLoop=1;jettySize=auto;html=1;entryX=0;entryY=0.5;entryDx=0;entryDy=0;strokeColor=#000000;align=center;verticalAlign=middle;fontFamily=Helvetica;fontSize=11;fontColor=default;labelBackgroundColor=default;endArrow=none;endFill=0;fillColor=#e1d5e7;" edge="1" parent="1" source="iwGTZRKViXxZ3JSaXPzP-13" target="iwGTZRKViXxZ3JSaXPzP-18">
          <mxGeometry relative="1" as="geometry" />
        </mxCell>
        <mxCell id="iwGTZRKViXxZ3JSaXPzP-13" value="Profissional de Saúde" style="whiteSpace=wrap;html=1;align=center;" vertex="1" parent="1">
          <mxGeometry x="310" y="-350" width="150" height="40" as="geometry" />
        </mxCell>
        <mxCell id="iwGTZRKViXxZ3JSaXPzP-14" value="Morada" style="ellipse;whiteSpace=wrap;html=1;align=center;" vertex="1" parent="1">
          <mxGeometry x="380" y="-410" width="100" height="40" as="geometry" />
        </mxCell>
        <mxCell id="iwGTZRKViXxZ3JSaXPzP-15" value="Telefone" style="ellipse;whiteSpace=wrap;html=1;align=center;" vertex="1" parent="1">
          <mxGeometry x="250" y="-420" width="100" height="40" as="geometry" />
        </mxCell>
        <mxCell id="iwGTZRKViXxZ3JSaXPzP-16" value="IBAN" style="ellipse;whiteSpace=wrap;html=1;align=center;" vertex="1" parent="1">
          <mxGeometry x="150" y="-360" width="100" height="40" as="geometry" />
        </mxCell>
        <mxCell id="iwGTZRKViXxZ3JSaXPzP-17" value="Nome" style="ellipse;whiteSpace=wrap;html=1;align=center;" vertex="1" parent="1">
          <mxGeometry x="180" y="-280" width="100" height="40" as="geometry" />
        </mxCell>
        <mxCell id="iwGTZRKViXxZ3JSaXPzP-18" value="NIF" style="ellipse;whiteSpace=wrap;html=1;align=center;fontStyle=4;" vertex="1" parent="1">
          <mxGeometry x="530" y="-370" width="100" height="40" as="geometry" />
        </mxCell>
        <mxCell id="iwGTZRKViXxZ3JSaXPzP-22" value="Médico" style="whiteSpace=wrap;html=1;align=center;" vertex="1" parent="1">
          <mxGeometry x="280" y="-180" width="100" height="40" as="geometry" />
        </mxCell>
        <mxCell id="Yjufbvyt89fXHSWcbqHx-56" value="" style="edgeStyle=orthogonalEdgeStyle;rounded=0;orthogonalLoop=1;jettySize=auto;html=1;strokeColor=default;align=center;verticalAlign=middle;fontFamily=Helvetica;fontSize=11;fontColor=default;labelBackgroundColor=default;endArrow=none;endFill=0;" edge="1" parent="1" source="iwGTZRKViXxZ3JSaXPzP-23" target="Yjufbvyt89fXHSWcbqHx-55">
          <mxGeometry relative="1" as="geometry" />
        </mxCell>
        <mxCell id="iwGTZRKViXxZ3JSaXPzP-23" value="Enfermeiro" style="whiteSpace=wrap;html=1;align=center;" vertex="1" parent="1">
          <mxGeometry x="440" y="-180" width="100" height="40" as="geometry" />
        </mxCell>
        <mxCell id="iwGTZRKViXxZ3JSaXPzP-30" value="" style="group" vertex="1" connectable="0" parent="1">
          <mxGeometry x="362.5" y="-286.25" width="45" height="35.25" as="geometry" />
        </mxCell>
        <mxCell id="iwGTZRKViXxZ3JSaXPzP-21" value="" style="triangle;whiteSpace=wrap;html=1;rotation=-90;" vertex="1" parent="iwGTZRKViXxZ3JSaXPzP-30">
          <mxGeometry x="6.25" y="-6.25" width="32.5" height="45" as="geometry" />
        </mxCell>
        <mxCell id="iwGTZRKViXxZ3JSaXPzP-27" value="&lt;font style=&quot;font-size: 14px;&quot;&gt;x&lt;/font&gt;" style="text;html=1;align=center;verticalAlign=middle;resizable=0;points=[];autosize=1;strokeColor=none;fillColor=none;fontFamily=Helvetica;fontSize=11;fontColor=default;labelBackgroundColor=default;" vertex="1" parent="iwGTZRKViXxZ3JSaXPzP-30">
          <mxGeometry x="7.25" y="5.25" width="30" height="30" as="geometry" />
        </mxCell>
        <mxCell id="jl5R3bbfk-XUICAmzDHX-14" style="edgeStyle=none;rounded=0;orthogonalLoop=1;jettySize=auto;html=1;entryX=0.5;entryY=0;entryDx=0;entryDy=0;strokeColor=#000000;align=center;verticalAlign=middle;fontFamily=Helvetica;fontSize=11;fontColor=default;labelBackgroundColor=default;endArrow=none;endFill=0;fillColor=#e1d5e7;" edge="1" parent="1" source="iwGTZRKViXxZ3JSaXPzP-41" target="jl5R3bbfk-XUICAmzDHX-13">
          <mxGeometry relative="1" as="geometry" />
        </mxCell>
        <mxCell id="jl5R3bbfk-XUICAmzDHX-43" style="edgeStyle=none;rounded=0;orthogonalLoop=1;jettySize=auto;html=1;entryX=0.5;entryY=1;entryDx=0;entryDy=0;strokeColor=#000000;align=center;verticalAlign=middle;fontFamily=Helvetica;fontSize=11;fontColor=default;labelBackgroundColor=default;endArrow=none;endFill=0;fillColor=#e1d5e7;" edge="1" parent="1" source="iwGTZRKViXxZ3JSaXPzP-41" target="jl5R3bbfk-XUICAmzDHX-42">
          <mxGeometry relative="1" as="geometry" />
        </mxCell>
        <mxCell id="iwGTZRKViXxZ3JSaXPzP-41" value="Sistema de Saúde" style="whiteSpace=wrap;html=1;align=center;fontFamily=Helvetica;fontSize=11;fontColor=default;labelBackgroundColor=default;" vertex="1" parent="1">
          <mxGeometry x="-60" y="20" width="100" height="40" as="geometry" />
        </mxCell>
        <mxCell id="jl5R3bbfk-XUICAmzDHX-13" value="" style="rhombus;whiteSpace=wrap;html=1;fontFamily=Helvetica;fontSize=11;fontColor=default;labelBackgroundColor=default;" vertex="1" parent="1">
          <mxGeometry x="-25" y="89" width="30" height="30" as="geometry" />
        </mxCell>
        <mxCell id="jl5R3bbfk-XUICAmzDHX-38" style="edgeStyle=none;rounded=0;orthogonalLoop=1;jettySize=auto;html=1;entryX=0.5;entryY=0;entryDx=0;entryDy=0;strokeColor=#000000;align=center;verticalAlign=middle;fontFamily=Helvetica;fontSize=11;fontColor=default;labelBackgroundColor=default;endArrow=none;endFill=0;fillColor=#e1d5e7;" edge="1" parent="1" source="jl5R3bbfk-XUICAmzDHX-21" target="jl5R3bbfk-XUICAmzDHX-29">
          <mxGeometry relative="1" as="geometry" />
        </mxCell>
        <mxCell id="jl5R3bbfk-XUICAmzDHX-39" style="edgeStyle=none;rounded=0;orthogonalLoop=1;jettySize=auto;html=1;entryX=0.5;entryY=0;entryDx=0;entryDy=0;strokeColor=#000000;align=center;verticalAlign=middle;fontFamily=Helvetica;fontSize=11;fontColor=default;labelBackgroundColor=default;endArrow=none;endFill=0;fillColor=#e1d5e7;" edge="1" parent="1" source="jl5R3bbfk-XUICAmzDHX-21" target="jl5R3bbfk-XUICAmzDHX-31">
          <mxGeometry relative="1" as="geometry" />
        </mxCell>
        <mxCell id="jl5R3bbfk-XUICAmzDHX-40" style="edgeStyle=none;rounded=0;orthogonalLoop=1;jettySize=auto;html=1;entryX=0;entryY=0.5;entryDx=0;entryDy=0;strokeColor=#000000;align=center;verticalAlign=middle;fontFamily=Helvetica;fontSize=11;fontColor=default;labelBackgroundColor=default;endArrow=none;endFill=0;fillColor=#e1d5e7;" edge="1" parent="1" source="jl5R3bbfk-XUICAmzDHX-21" target="jl5R3bbfk-XUICAmzDHX-32">
          <mxGeometry relative="1" as="geometry" />
        </mxCell>
        <mxCell id="jl5R3bbfk-XUICAmzDHX-41" style="edgeStyle=none;rounded=0;orthogonalLoop=1;jettySize=auto;html=1;entryX=1;entryY=0.5;entryDx=0;entryDy=0;strokeColor=#000000;align=center;verticalAlign=middle;fontFamily=Helvetica;fontSize=11;fontColor=default;labelBackgroundColor=default;endArrow=none;endFill=0;fillColor=#e1d5e7;" edge="1" parent="1" source="jl5R3bbfk-XUICAmzDHX-21" target="jl5R3bbfk-XUICAmzDHX-30">
          <mxGeometry relative="1" as="geometry" />
        </mxCell>
        <mxCell id="jl5R3bbfk-XUICAmzDHX-21" value="Paciente" style="html=1;whiteSpace=wrap;fontFamily=Helvetica;fontSize=11;fontColor=default;labelBackgroundColor=default;" vertex="1" parent="1">
          <mxGeometry x="-60" y="140" width="100" height="50" as="geometry" />
        </mxCell>
        <mxCell id="jl5R3bbfk-XUICAmzDHX-29" value="NIF" style="ellipse;whiteSpace=wrap;html=1;align=center;fontFamily=Helvetica;fontSize=11;fontColor=default;labelBackgroundColor=default;" vertex="1" parent="1">
          <mxGeometry x="-270" y="60" width="100" height="40" as="geometry" />
        </mxCell>
        <mxCell id="jl5R3bbfk-XUICAmzDHX-30" value="Nome" style="ellipse;whiteSpace=wrap;html=1;align=center;fontFamily=Helvetica;fontSize=11;fontColor=default;labelBackgroundColor=default;" vertex="1" parent="1">
          <mxGeometry x="-320" y="145" width="100" height="40" as="geometry" />
        </mxCell>
        <mxCell id="jl5R3bbfk-XUICAmzDHX-31" value="Telefone" style="ellipse;whiteSpace=wrap;html=1;align=center;fontFamily=Helvetica;fontSize=11;fontColor=default;labelBackgroundColor=default;" vertex="1" parent="1">
          <mxGeometry x="-320" y="220" width="100" height="40" as="geometry" />
        </mxCell>
        <mxCell id="jl5R3bbfk-XUICAmzDHX-32" value="SNSid" style="ellipse;whiteSpace=wrap;html=1;align=center;fontStyle=4;fontFamily=Helvetica;fontSize=11;fontColor=default;labelBackgroundColor=default;" vertex="1" parent="1">
          <mxGeometry x="-190" y="260" width="100" height="40" as="geometry" />
        </mxCell>
        <mxCell id="jl5R3bbfk-XUICAmzDHX-42" value="Nome" style="ellipse;whiteSpace=wrap;html=1;align=center;fontStyle=4;fontFamily=Helvetica;fontSize=11;fontColor=default;labelBackgroundColor=default;" vertex="1" parent="1">
          <mxGeometry x="-60" y="-40" width="100" height="40" as="geometry" />
        </mxCell>
        <mxCell id="Yjufbvyt89fXHSWcbqHx-22" style="edgeStyle=orthogonalEdgeStyle;rounded=0;orthogonalLoop=1;jettySize=auto;html=1;strokeColor=default;align=center;verticalAlign=middle;fontFamily=Helvetica;fontSize=11;fontColor=default;labelBackgroundColor=default;endArrow=none;endFill=0;" edge="1" parent="1" source="jl5R3bbfk-XUICAmzDHX-44" target="iwGTZRKViXxZ3JSaXPzP-22">
          <mxGeometry relative="1" as="geometry" />
        </mxCell>
        <mxCell id="jl5R3bbfk-XUICAmzDHX-44" value="Especialidade" style="ellipse;whiteSpace=wrap;html=1;align=center;fontFamily=Helvetica;fontSize=11;fontColor=default;labelBackgroundColor=default;" vertex="1" parent="1">
          <mxGeometry x="130" y="-180" width="100" height="40" as="geometry" />
        </mxCell>
        <mxCell id="Yjufbvyt89fXHSWcbqHx-43" style="rounded=0;orthogonalLoop=1;jettySize=auto;html=1;entryX=0;entryY=0.5;entryDx=0;entryDy=0;strokeColor=default;align=center;verticalAlign=middle;fontFamily=Helvetica;fontSize=11;fontColor=default;labelBackgroundColor=default;endArrow=none;endFill=0;" edge="1" parent="1">
          <mxGeometry relative="1" as="geometry">
            <mxPoint x="484.64285714285734" y="152.85714285714312" as="sourcePoint" />
          </mxGeometry>
        </mxCell>
        <mxCell id="Yjufbvyt89fXHSWcbqHx-45" style="rounded=0;orthogonalLoop=1;jettySize=auto;html=1;entryX=1;entryY=0.5;entryDx=0;entryDy=0;strokeColor=default;align=center;verticalAlign=middle;fontFamily=Helvetica;fontSize=11;fontColor=default;labelBackgroundColor=default;endArrow=none;endFill=0;" edge="1" parent="1">
          <mxGeometry relative="1" as="geometry">
            <mxPoint x="440" y="200" as="targetPoint" />
          </mxGeometry>
        </mxCell>
        <mxCell id="Yjufbvyt89fXHSWcbqHx-38" style="edgeStyle=orthogonalEdgeStyle;rounded=0;orthogonalLoop=1;jettySize=auto;html=1;entryX=0;entryY=0.5;entryDx=0;entryDy=0;strokeColor=default;align=center;verticalAlign=middle;fontFamily=Helvetica;fontSize=11;fontColor=default;labelBackgroundColor=default;endArrow=none;endFill=0;" edge="1" parent="1">
          <mxGeometry relative="1" as="geometry">
            <mxPoint x="30" y="-375" as="sourcePoint" />
          </mxGeometry>
        </mxCell>
        <mxCell id="Yjufbvyt89fXHSWcbqHx-55" value="" style="rhombus;whiteSpace=wrap;html=1;" vertex="1" parent="1">
          <mxGeometry x="700" y="-80" width="40" height="40" as="geometry" />
        </mxCell>
        <mxCell id="Yjufbvyt89fXHSWcbqHx-60" style="edgeStyle=orthogonalEdgeStyle;rounded=0;orthogonalLoop=1;jettySize=auto;html=1;strokeColor=default;align=center;verticalAlign=middle;fontFamily=Helvetica;fontSize=11;fontColor=default;labelBackgroundColor=default;endArrow=none;endFill=0;entryX=0;entryY=0.75;entryDx=0;entryDy=0;" edge="1" parent="1" source="Yjufbvyt89fXHSWcbqHx-58" target="iwGTZRKViXxZ3JSaXPzP-8">
          <mxGeometry relative="1" as="geometry">
            <mxPoint x="329.99999999999955" y="240" as="targetPoint" />
            <Array as="points">
              <mxPoint x="460" y="210" />
              <mxPoint x="648" y="210" />
            </Array>
          </mxGeometry>
        </mxCell>
        <mxCell id="jxu_ykEHmRTxo8SEO0DL-10" style="edgeStyle=orthogonalEdgeStyle;rounded=0;orthogonalLoop=1;jettySize=auto;html=1;entryX=1;entryY=0.5;entryDx=0;entryDy=0;strokeColor=default;align=center;verticalAlign=middle;fontFamily=Helvetica;fontSize=11;fontColor=default;labelBackgroundColor=default;endArrow=none;endFill=0;" edge="1" parent="1" source="Yjufbvyt89fXHSWcbqHx-58" target="iwGTZRKViXxZ3JSaXPzP-22">
          <mxGeometry relative="1" as="geometry" />
        </mxCell>
        <mxCell id="Yjufbvyt89fXHSWcbqHx-58" value="" style="rhombus;whiteSpace=wrap;html=1;" vertex="1" parent="1">
          <mxGeometry x="440" y="-70" width="40" height="40" as="geometry" />
        </mxCell>
        <mxCell id="Yjufbvyt89fXHSWcbqHx-62" value="" style="endArrow=none;html=1;rounded=0;strokeColor=default;align=center;verticalAlign=middle;fontFamily=Helvetica;fontSize=11;fontColor=default;labelBackgroundColor=default;entryX=0;entryY=0.5;entryDx=0;entryDy=0;exitX=1;exitY=0.5;exitDx=0;exitDy=0;" edge="1" parent="1" source="Yjufbvyt89fXHSWcbqHx-58" target="Yjufbvyt89fXHSWcbqHx-63">
          <mxGeometry width="50" height="50" relative="1" as="geometry">
            <mxPoint x="310" y="-50" as="sourcePoint" />
            <mxPoint x="340" y="-10" as="targetPoint" />
          </mxGeometry>
        </mxCell>
        <mxCell id="Yjufbvyt89fXHSWcbqHx-63" value="Dia" style="ellipse;whiteSpace=wrap;html=1;align=center;fontFamily=Helvetica;fontSize=11;fontColor=default;labelBackgroundColor=default;" vertex="1" parent="1">
          <mxGeometry x="580" y="-70" width="100" height="40" as="geometry" />
        </mxCell>
        <mxCell id="Yjufbvyt89fXHSWcbqHx-65" style="edgeStyle=orthogonalEdgeStyle;rounded=0;orthogonalLoop=1;jettySize=auto;html=1;entryX=0.723;entryY=0.037;entryDx=0;entryDy=0;entryPerimeter=0;strokeColor=default;align=center;verticalAlign=middle;fontFamily=Helvetica;fontSize=11;fontColor=default;labelBackgroundColor=default;endArrow=none;endFill=0;" edge="1" parent="1" source="Yjufbvyt89fXHSWcbqHx-55" target="iwGTZRKViXxZ3JSaXPzP-8">
          <mxGeometry relative="1" as="geometry" />
        </mxCell>
        <mxCell id="Yjufbvyt89fXHSWcbqHx-69" style="edgeStyle=orthogonalEdgeStyle;rounded=0;orthogonalLoop=1;jettySize=auto;html=1;strokeColor=default;align=center;verticalAlign=middle;fontFamily=Helvetica;fontSize=11;fontColor=default;labelBackgroundColor=default;endArrow=none;endFill=0;entryX=0;entryY=0.75;entryDx=0;entryDy=0;" edge="1" parent="1" source="Yjufbvyt89fXHSWcbqHx-70" target="iwGTZRKViXxZ3JSaXPzP-8">
          <mxGeometry relative="1" as="geometry">
            <mxPoint x="650" y="230" as="targetPoint" />
            <Array as="points" />
          </mxGeometry>
        </mxCell>
        <mxCell id="Yjufbvyt89fXHSWcbqHx-73" value="" style="endArrow=none;html=1;rounded=0;strokeColor=default;align=center;verticalAlign=middle;fontFamily=Helvetica;fontSize=11;fontColor=default;labelBackgroundColor=default;entryX=1;entryY=0.5;entryDx=0;entryDy=0;" edge="1" parent="1" target="Yjufbvyt89fXHSWcbqHx-70">
          <mxGeometry width="50" height="50" relative="1" as="geometry">
            <mxPoint x="300" y="230" as="sourcePoint" />
            <mxPoint x="40" y="165" as="targetPoint" />
          </mxGeometry>
        </mxCell>
        <mxCell id="Yjufbvyt89fXHSWcbqHx-74" style="edgeStyle=orthogonalEdgeStyle;rounded=0;orthogonalLoop=1;jettySize=auto;html=1;entryX=1;entryY=0.5;entryDx=0;entryDy=0;strokeColor=default;align=center;verticalAlign=middle;fontFamily=Helvetica;fontSize=11;fontColor=default;labelBackgroundColor=default;endArrow=none;endFill=0;" edge="1" parent="1" source="Yjufbvyt89fXHSWcbqHx-70" target="jl5R3bbfk-XUICAmzDHX-21">
          <mxGeometry relative="1" as="geometry" />
        </mxCell>
        <mxCell id="Yjufbvyt89fXHSWcbqHx-70" value="" style="rhombus;whiteSpace=wrap;html=1;" vertex="1" parent="1">
          <mxGeometry x="290" y="210" width="40" height="40" as="geometry" />
        </mxCell>
        <mxCell id="Yjufbvyt89fXHSWcbqHx-77" value="" style="endArrow=none;html=1;rounded=0;strokeColor=default;align=center;verticalAlign=middle;fontFamily=Helvetica;fontSize=11;fontColor=default;labelBackgroundColor=default;entryX=0.5;entryY=0;entryDx=0;entryDy=0;exitX=0;exitY=1;exitDx=0;exitDy=0;" edge="1" parent="1" source="Yjufbvyt89fXHSWcbqHx-70" target="Yjufbvyt89fXHSWcbqHx-78">
          <mxGeometry width="50" height="50" relative="1" as="geometry">
            <mxPoint x="390" y="-40" as="sourcePoint" />
            <mxPoint x="350" as="targetPoint" />
          </mxGeometry>
        </mxCell>
        <mxCell id="Yjufbvyt89fXHSWcbqHx-78" value="Dia" style="ellipse;whiteSpace=wrap;html=1;align=center;fontFamily=Helvetica;fontSize=11;fontColor=default;labelBackgroundColor=default;" vertex="1" parent="1">
          <mxGeometry x="160" y="310" width="100" height="40" as="geometry" />
        </mxCell>
        <mxCell id="Yjufbvyt89fXHSWcbqHx-79" value="" style="endArrow=none;html=1;rounded=0;strokeColor=default;align=center;verticalAlign=middle;fontFamily=Helvetica;fontSize=11;fontColor=default;labelBackgroundColor=default;entryX=0.5;entryY=0;entryDx=0;entryDy=0;exitX=1;exitY=1;exitDx=0;exitDy=0;" edge="1" parent="1" source="Yjufbvyt89fXHSWcbqHx-70" target="Yjufbvyt89fXHSWcbqHx-80">
          <mxGeometry width="50" height="50" relative="1" as="geometry">
            <mxPoint x="300" y="280" as="sourcePoint" />
            <mxPoint x="260" y="320" as="targetPoint" />
          </mxGeometry>
        </mxCell>
        <mxCell id="Yjufbvyt89fXHSWcbqHx-80" value="Hora" style="ellipse;whiteSpace=wrap;html=1;align=center;fontFamily=Helvetica;fontSize=11;fontColor=default;labelBackgroundColor=default;" vertex="1" parent="1">
          <mxGeometry x="380" y="290" width="100" height="40" as="geometry" />
        </mxCell>
        <mxCell id="jxu_ykEHmRTxo8SEO0DL-3" style="edgeStyle=orthogonalEdgeStyle;rounded=0;orthogonalLoop=1;jettySize=auto;html=1;entryX=0.299;entryY=1.02;entryDx=0;entryDy=0;entryPerimeter=0;endArrow=none;endFill=0;" edge="1" parent="1" source="Yjufbvyt89fXHSWcbqHx-70" target="iwGTZRKViXxZ3JSaXPzP-22">
          <mxGeometry relative="1" as="geometry" />
        </mxCell>
        <mxCell id="jxu_ykEHmRTxo8SEO0DL-4" style="edgeStyle=orthogonalEdgeStyle;rounded=1;orthogonalLoop=1;jettySize=auto;html=1;entryX=0.5;entryY=0;entryDx=0;entryDy=0;strokeColor=default;align=center;verticalAlign=middle;fontFamily=Helvetica;fontSize=11;fontColor=default;labelBackgroundColor=default;endArrow=none;endFill=0;curved=0;" edge="1" parent="1" source="iwGTZRKViXxZ3JSaXPzP-27" target="iwGTZRKViXxZ3JSaXPzP-23">
          <mxGeometry relative="1" as="geometry">
            <Array as="points">
              <mxPoint x="385" y="-220" />
              <mxPoint x="490" y="-220" />
            </Array>
          </mxGeometry>
        </mxCell>
        <mxCell id="jxu_ykEHmRTxo8SEO0DL-5" style="edgeStyle=orthogonalEdgeStyle;rounded=1;orthogonalLoop=1;jettySize=auto;html=1;entryX=0.5;entryY=0;entryDx=0;entryDy=0;strokeColor=default;align=center;verticalAlign=middle;fontFamily=Helvetica;fontSize=11;fontColor=default;labelBackgroundColor=default;endArrow=none;endFill=0;curved=0;" edge="1" parent="1" source="iwGTZRKViXxZ3JSaXPzP-27" target="iwGTZRKViXxZ3JSaXPzP-22">
          <mxGeometry relative="1" as="geometry">
            <Array as="points">
              <mxPoint x="385" y="-220" />
              <mxPoint x="330" y="-220" />
            </Array>
          </mxGeometry>
        </mxCell>
        <mxCell id="jxu_ykEHmRTxo8SEO0DL-6" value="" style="endArrow=none;dashed=1;html=1;dashPattern=1 3;strokeWidth=2;rounded=0;strokeColor=default;align=center;verticalAlign=middle;fontFamily=Helvetica;fontSize=11;fontColor=default;labelBackgroundColor=default;" edge="1" parent="1">
          <mxGeometry width="50" height="50" relative="1" as="geometry">
            <mxPoint x="-350" y="-200" as="sourcePoint" />
            <mxPoint x="400" y="-200" as="targetPoint" />
          </mxGeometry>
        </mxCell>
        <mxCell id="jxu_ykEHmRTxo8SEO0DL-7" value="" style="endArrow=none;dashed=1;html=1;dashPattern=1 3;strokeWidth=2;rounded=0;strokeColor=default;align=center;verticalAlign=middle;fontFamily=Helvetica;fontSize=11;fontColor=default;labelBackgroundColor=default;" edge="1" parent="1">
          <mxGeometry width="50" height="50" relative="1" as="geometry">
            <mxPoint x="-350" y="380" as="sourcePoint" />
            <mxPoint x="-350" y="-200" as="targetPoint" />
          </mxGeometry>
        </mxCell>
        <mxCell id="jxu_ykEHmRTxo8SEO0DL-11" value="" style="endArrow=none;dashed=1;html=1;dashPattern=1 3;strokeWidth=2;rounded=0;strokeColor=default;align=center;verticalAlign=middle;fontFamily=Helvetica;fontSize=11;fontColor=default;labelBackgroundColor=default;" edge="1" parent="1">
          <mxGeometry width="50" height="50" relative="1" as="geometry">
            <mxPoint x="400" y="105" as="sourcePoint" />
            <mxPoint x="400" y="-205" as="targetPoint" />
          </mxGeometry>
        </mxCell>
        <mxCell id="jxu_ykEHmRTxo8SEO0DL-12" value="" style="endArrow=none;dashed=1;html=1;dashPattern=1 3;strokeWidth=2;rounded=0;strokeColor=default;align=center;verticalAlign=middle;fontFamily=Helvetica;fontSize=11;fontColor=default;labelBackgroundColor=default;" edge="1" parent="1">
          <mxGeometry width="50" height="50" relative="1" as="geometry">
            <mxPoint x="400" y="110" as="sourcePoint" />
            <mxPoint x="920" y="110" as="targetPoint" />
          </mxGeometry>
        </mxCell>
        <mxCell id="jxu_ykEHmRTxo8SEO0DL-13" value="" style="endArrow=none;dashed=1;html=1;dashPattern=1 3;strokeWidth=2;rounded=0;strokeColor=default;align=center;verticalAlign=middle;fontFamily=Helvetica;fontSize=11;fontColor=default;labelBackgroundColor=default;" edge="1" parent="1">
          <mxGeometry width="50" height="50" relative="1" as="geometry">
            <mxPoint x="480" y="389.7777777777778" as="sourcePoint" />
            <mxPoint x="920" y="380" as="targetPoint" />
          </mxGeometry>
        </mxCell>
        <mxCell id="jxu_ykEHmRTxo8SEO0DL-14" value="" style="endArrow=none;dashed=1;html=1;dashPattern=1 3;strokeWidth=2;rounded=0;strokeColor=default;align=center;verticalAlign=middle;fontFamily=Helvetica;fontSize=11;fontColor=default;labelBackgroundColor=default;" edge="1" parent="1">
          <mxGeometry width="50" height="50" relative="1" as="geometry">
            <mxPoint x="920" y="380" as="sourcePoint" />
            <mxPoint x="920" y="110" as="targetPoint" />
          </mxGeometry>
        </mxCell>
        <mxCell id="jxu_ykEHmRTxo8SEO0DL-20" style="edgeStyle=orthogonalEdgeStyle;rounded=0;orthogonalLoop=1;jettySize=auto;html=1;entryX=0.5;entryY=1;entryDx=0;entryDy=0;strokeColor=default;align=center;verticalAlign=middle;fontFamily=Helvetica;fontSize=11;fontColor=default;labelBackgroundColor=default;endArrow=none;endFill=0;shape=link;" edge="1" parent="1" source="jxu_ykEHmRTxo8SEO0DL-15" target="jxu_ykEHmRTxo8SEO0DL-18">
          <mxGeometry relative="1" as="geometry" />
        </mxCell>
        <mxCell id="jxu_ykEHmRTxo8SEO0DL-15" value="Sintoma" style="html=1;whiteSpace=wrap;fontFamily=Helvetica;fontSize=11;fontColor=default;labelBackgroundColor=default;" vertex="1" parent="1">
          <mxGeometry x="130" y="520" width="100" height="50" as="geometry" />
        </mxCell>
        <mxCell id="jxu_ykEHmRTxo8SEO0DL-21" style="edgeStyle=orthogonalEdgeStyle;rounded=0;orthogonalLoop=1;jettySize=auto;html=1;entryX=0.5;entryY=1;entryDx=0;entryDy=0;strokeColor=default;align=center;verticalAlign=middle;fontFamily=Helvetica;fontSize=11;fontColor=default;labelBackgroundColor=default;endArrow=none;endFill=0;shape=link;" edge="1" parent="1" source="jxu_ykEHmRTxo8SEO0DL-16" target="jxu_ykEHmRTxo8SEO0DL-19">
          <mxGeometry relative="1" as="geometry" />
        </mxCell>
        <mxCell id="jxu_ykEHmRTxo8SEO0DL-16" value="Receita Médica" style="html=1;whiteSpace=wrap;fontFamily=Helvetica;fontSize=11;fontColor=default;labelBackgroundColor=default;" vertex="1" parent="1">
          <mxGeometry x="420" y="520" width="100" height="50" as="geometry" />
        </mxCell>
        <mxCell id="jxu_ykEHmRTxo8SEO0DL-22" style="edgeStyle=orthogonalEdgeStyle;rounded=0;orthogonalLoop=1;jettySize=auto;html=1;strokeColor=default;align=center;verticalAlign=middle;fontFamily=Helvetica;fontSize=11;fontColor=default;labelBackgroundColor=default;endArrow=classic;endFill=1;" edge="1" parent="1" source="jxu_ykEHmRTxo8SEO0DL-18">
          <mxGeometry relative="1" as="geometry">
            <mxPoint x="180" y="380" as="targetPoint" />
          </mxGeometry>
        </mxCell>
        <mxCell id="jxu_ykEHmRTxo8SEO0DL-18" value="" style="rhombus;whiteSpace=wrap;html=1;fontFamily=Helvetica;fontSize=11;fontColor=default;labelBackgroundColor=default;" vertex="1" parent="1">
          <mxGeometry x="165" y="440" width="30" height="30" as="geometry" />
        </mxCell>
        <mxCell id="jxu_ykEHmRTxo8SEO0DL-29" style="rounded=0;orthogonalLoop=1;jettySize=auto;html=1;strokeColor=default;align=center;verticalAlign=middle;fontFamily=Helvetica;fontSize=11;fontColor=default;labelBackgroundColor=default;endArrow=block;endFill=0;shape=flexArrow;endWidth=13.2;startArrow=none;startFill=0;exitX=0.499;exitY=0.103;exitDx=0;exitDy=0;exitPerimeter=0;" edge="1" parent="1" source="jxu_ykEHmRTxo8SEO0DL-19">
          <mxGeometry relative="1" as="geometry">
            <mxPoint x="469.8" y="390" as="targetPoint" />
            <mxPoint x="469.8" y="440" as="sourcePoint" />
          </mxGeometry>
        </mxCell>
        <mxCell id="jxu_ykEHmRTxo8SEO0DL-19" value="" style="rhombus;whiteSpace=wrap;html=1;fontFamily=Helvetica;fontSize=11;fontColor=default;labelBackgroundColor=default;" vertex="1" parent="1">
          <mxGeometry x="455" y="440" width="30" height="30" as="geometry" />
        </mxCell>
        <mxCell id="jxu_ykEHmRTxo8SEO0DL-26" value="" style="endArrow=none;dashed=1;html=1;dashPattern=1 3;strokeWidth=2;rounded=0;strokeColor=default;align=center;verticalAlign=middle;fontFamily=Helvetica;fontSize=11;fontColor=default;labelBackgroundColor=default;" edge="1" parent="1">
          <mxGeometry width="50" height="50" relative="1" as="geometry">
            <mxPoint x="-350" y="380" as="sourcePoint" />
            <mxPoint x="480" y="390" as="targetPoint" />
          </mxGeometry>
        </mxCell>
      </root>
    </mxGraphModel>
  </diagram>
</mxfile>
